<svg xmlns="http://www.w3.org/2000/svg" xmlns:xlink="http://www.w3.org/1999/xlink" viewBox="0 0 595.2 841.92"><defs><style>.cls-1{fill:none;}.cls-2{clip-path:url(#clip-path);}.cls-3{fill:#204a3b;}</style><clipPath id="clip-path" transform="translate(31.04 60.52)"><rect class="cls-1" width="533.12" height="677.96"/></clipPath></defs><g id="Capa_2" data-name="Capa 2"><g id="Capa_1-2" data-name="Capa 1"><g class="cls-2"><image width="2480" height="3508" transform="scale(0.24)" xlink:href="../../../../../../Downloads/Ilustracio%CC%81n_sin_ti%CC%81tulo%20(8).png"/><path class="cls-3" d="M415.58,383.55l-.9.22c-.58.14-1.16.28-1.73.4a.57.57,0,0,0-.35.23,26.21,26.21,0,0,1-3,3.37,11.75,11.75,0,0,1-1,.88c-.06.05-.14.1-.2,0s0-.15,0-.21a4.59,4.59,0,0,1,.39-.37,22.52,22.52,0,0,0,2-2.15c.37-.47.77-.93,1.15-1.4,0,0,.06-.09.11-.15a9.86,9.86,0,0,0-1.13.19,16.82,16.82,0,0,1-2.23.3,6.5,6.5,0,0,1-2.59-.34,2.91,2.91,0,0,1-2-2.09,3,3,0,0,1,.08-1.56,7.4,7.4,0,0,1,1.53-2.79,8.92,8.92,0,0,1,2.91-2.3,6.68,6.68,0,0,1,2.1-.66,3.48,3.48,0,0,1,2.11.29,3.64,3.64,0,0,1,2,2.55,4.68,4.68,0,0,1-.11,2.2,10.33,10.33,0,0,1-1.11,2.55l-.21.36.57-.12,1.93-.45c.28-.05.39-.24.51-.45.61-1.11,1.19-2.23,1.7-3.39.14-.33.29-.66.44-1a1.62,1.62,0,0,1,.1-.18s.07-.15.17-.1.05.14,0,.21c-.09.24-.19.47-.28.71a36.34,36.34,0,0,1-1.58,3.48c-.06.12-.12.25-.17.37s-.05.07,0,.1.08,0,.11,0l2.09-.48c1.08-.24,2.17-.5,3.26-.72a6.3,6.3,0,0,1,1.51-.18c.26,0,.35.15.29.4a.58.58,0,0,1-.57.47c-.8.1-1.59.3-2.39.48l-4.66,1.06a.64.64,0,0,0-.43.37c-.57,1-1.15,2.05-1.73,3.08-.13.23-.26.47-.38.72l.87-.77a7.54,7.54,0,0,1,2.89-1.66,2.5,2.5,0,0,1,1.6,0,1.42,1.42,0,0,1,.95,1.2,5.37,5.37,0,0,1-.39,2.57,13,13,0,0,1-1.48,2.84,23.9,23.9,0,0,1-1.56,2A30.42,30.42,0,0,1,414.7,396c-.57.54-1.16,1.05-1.77,1.55s-1.43,1.1-2.16,1.67l1.13-.34c1.32-.4,2.65-.75,4-1,1-.21,2-.39,2.94-.56.43-.07.85-.13,1.28-.18a.19.19,0,0,0,.19-.17c.48-1.84,1-3.67,1.51-5.5a11.7,11.7,0,0,1,.5-1.28c0-.06.06-.17.14-.14s.06.14.05.21l-.24.83c-.36,1.14-.6,2.31-.88,3.47-.18.74-.35,1.48-.53,2.23,0,0,0,.09,0,.13s0,.12.1.11c.58-.06,1.16-.14,1.75-.19a1.46,1.46,0,0,1,.59,0c.21.08.26.18.19.39a2.77,2.77,0,0,1-.1.26.27.27,0,0,1-.22.16l-1.32.1c-.37,0-.75.1-1.13.13-.1,0-.1.1-.12.16l-.42,1.77c-.31,1.34-.66,2.68-.93,4-.08.4-.15.8-.23,1.2a1.09,1.09,0,0,1-.14.38.16.16,0,0,1-.29,0,.82.82,0,0,1-.26-.72,16.53,16.53,0,0,1,.45-2c.26-.93.51-1.87.77-2.81.16-.6.32-1.2.49-1.8a.52.52,0,0,0,0-.18l-1.11.15c-.84.14-1.68.29-2.52.47-1,.22-2,.46-3,.74s-1.85.55-2.77.87-2.07.75-3.08,1.19c-.26.11-.38.07-.51-.18L407,401a.24.24,0,0,1,.1-.35c.65-.39,1.28-.81,1.91-1.24.86-.59,1.69-1.21,2.5-1.87l1.87-1.54c.14-.1.25-.23.38-.34a22.51,22.51,0,0,0,1.62-1.62,24.47,24.47,0,0,0,2.65-3.36,10,10,0,0,0,1.35-3,3.38,3.38,0,0,0,.11-1.1c0-.46-.32-.59-.74-.63a2.62,2.62,0,0,0-1.26.29,8.26,8.26,0,0,0-2,1.29,13.37,13.37,0,0,0-1.5,1.41c-.46.5-.89,1-1.34,1.56l-.29.33a.22.22,0,0,1-.33,0,.64.64,0,0,1-.19-.83c.44-.81.91-1.6,1.39-2.38l1.82-3,.63-1.05Zm-4.3-7.66a3.31,3.31,0,0,0-1.14.19,8.38,8.38,0,0,0-3.6,2.37,7.65,7.65,0,0,0-1.39,2.08,3.29,3.29,0,0,0-.32,1.19,1.85,1.85,0,0,0,1.22,1.87,5.6,5.6,0,0,0,2.14.43,6.56,6.56,0,0,0,.76,0,7.61,7.61,0,0,0,1.07-.11c.84-.18,1.67-.36,2.51-.52a.6.6,0,0,0,.45-.3,14.58,14.58,0,0,0,1-1.89,5.59,5.59,0,0,0,.48-2.68,2.48,2.48,0,0,0-.43-1.18A3.08,3.08,0,0,0,411.28,375.89Z" transform="translate(31.04 60.52)"/></g></g></g></svg>