<svg xmlns="http://www.w3.org/2000/svg" viewBox="0 0 415.4 280.87"><defs><style>.cls-1{fill:#b1b1b1;}</style></defs><g id="Capa_2" data-name="Capa 2"><g id="Capa_1-2" data-name="Capa 1"><path class="cls-1" d="M336.14,78.19l-8.37,2c-5.35,1.27-10.69,2.57-16.06,3.76A5.12,5.12,0,0,0,308.49,86c-8.13,11.52-18.11,21.37-28.08,31.24a110.82,110.82,0,0,1-9.15,8.18c-.59.47-1.26.86-1.82.35s-.15-1.39.31-1.93a49.76,49.76,0,0,1,3.66-3.46,205.77,205.77,0,0,0,18.39-19.87c3.49-4.39,7.13-8.66,10.69-13,.32-.4.58-.85,1-1.45-3.66.29-7,1.16-10.45,1.76-6.86,1.19-13.66,2.56-20.67,2.85-8.21.34-16.2-.35-24-3.18-9.31-3.42-15.89-9.51-18.26-19.4a28,28,0,0,1,.68-14.47A70.3,70.3,0,0,1,245,27.8,83.31,83.31,0,0,1,272,6.54,63.41,63.41,0,0,1,291.42.42c6.78-.92,13.44-.48,19.63,2.72,9.79,5,16.55,12.6,18.84,23.62a42.8,42.8,0,0,1-1,20.39,97.1,97.1,0,0,1-10.26,23.6c-.61,1-1.19,2.07-1.92,3.35,1.91-.41,3.59-.75,5.25-1.14,6-1.38,11.91-2.89,17.91-4.12,2.55-.53,3.61-2.28,4.68-4.22,5.64-10.27,11-20.67,15.71-31.39q2-4.62,4.12-9.19a11.55,11.55,0,0,1,.95-1.63c.36-.54.62-1.39,1.52-.92s.5,1.28.25,1.94c-.85,2.2-1.78,4.37-2.63,6.57a339.8,339.8,0,0,1-14.66,32.23c-.57,1.12-1.05,2.28-1.57,3.43-.13.28-.43.59-.22.87s.66.13,1,0c6.43-1.49,12.85-3,19.29-4.44,10.06-2.26,20.1-4.6,30.21-6.65,4.6-.93,9.25-1.89,14-1.73,2.4.08,3.22,1.42,2.7,3.78-.64,2.92-2.57,4-5.24,4.29-7.49,1-14.81,2.82-22.16,4.46-14.41,3.21-28.78,6.6-43.19,9.83-2.06.46-3.07,1.76-4,3.41q-8,14.28-16,28.54c-1.23,2.19-2.48,4.36-3.57,6.67,2.69-2.37,5.36-4.77,8.08-7.1,7.94-6.83,16.51-12.62,26.76-15.41,4.89-1.32,9.92-2.09,14.85-.2a13.15,13.15,0,0,1,8.76,11.13c1.18,8.32-.79,16.18-3.6,23.86a120,120,0,0,1-13.73,26.31,207.3,207.3,0,0,1-14.45,18.82,288.22,288.22,0,0,1-19.78,21q-8,7.49-16.44,14.39c-6.46,5.27-13.18,10.19-19.94,15.49,3.63-1.11,7-2.16,10.38-3.18q18.34-5.58,37.08-9.69c9.06-2,18.16-3.68,27.29-5.23,3.92-.67,7.87-1.16,11.81-1.67a1.88,1.88,0,0,0,1.82-1.6c4.42-17,9.17-34,14-50.93a90.46,90.46,0,0,1,4.63-11.86c.26-.59.51-1.58,1.29-1.33s.58,1.32.41,2c-.67,2.59-1.41,5.16-2.2,7.71-3.31,10.57-5.51,21.41-8.13,32.15-1.68,6.87-3.29,13.76-4.93,20.64a12.33,12.33,0,0,1-.21,1.24c-.35,1,.2,1.11.95,1,5.4-.6,10.79-1.32,16.21-1.77,1.79-.14,3.62-.73,5.44-.09s2.47,1.66,1.82,3.63c-.27.79-.59,1.57-.91,2.34a2.35,2.35,0,0,1-2.08,1.47c-4.07.34-8.15.6-12.21,1-3.48.34-7,.86-10.44,1.22-1,.11-1,.86-1.13,1.45q-2,8.17-3.87,16.37c-2.89,12.45-6.18,24.81-8.66,37.35-.74,3.7-1.38,7.41-2.11,11.11a10.93,10.93,0,0,1-1.28,3.53,1.58,1.58,0,0,1-2.74.39,7.6,7.6,0,0,1-2.43-6.7c.83-6.2,2.59-12.18,4.23-18.2q3.56-13,7.07-26.09,2.26-8.35,4.54-16.69a3.62,3.62,0,0,0,.2-1.66c-3.44.48-6.87.88-10.26,1.45-7.79,1.3-15.58,2.67-23.31,4.32-9.37,2-18.68,4.25-27.91,6.85-8.63,2.44-17.2,5.07-25.65,8-9.65,3.39-19.21,7-28.6,11-2.4,1-3.48.7-4.74-1.63-.27-.51-.53-1-.77-1.55a2.19,2.19,0,0,1,.92-3.2c6-3.63,11.88-7.51,17.68-11.49q11.93-8.21,23.17-17.31c5.83-4.7,11.59-9.48,17.37-14.26,1.21-1,2.31-2.13,3.48-3.18a205.34,205.34,0,0,0,15.05-15c8.9-9.77,17.4-19.88,24.51-31.08,5.48-8.64,10.12-17.67,12.52-27.69a32,32,0,0,0,1-10.25c-.37-4.28-2.93-5.47-6.82-5.8-4.17-.35-8,1.12-11.71,2.64-7,2.84-12.89,7.38-18.73,12a122.5,122.5,0,0,0-13.89,13c-4.28,4.66-8.26,9.61-12.37,14.44-.89,1-1.77,2.07-2.7,3.07a2.06,2.06,0,0,1-3.06.26,5.92,5.92,0,0,1-1.75-7.7c4-7.48,8.4-14.77,12.82-22Q322.1,102,330.55,88.21q3-4.81,5.87-9.65Zm-39.86-71A31.45,31.45,0,0,0,285.72,9,77.14,77.14,0,0,0,252.33,30.9c-5.2,5.84-9.77,12.05-12.87,19.26a31.81,31.81,0,0,0-3,11c-.41,8.52,4.22,14.13,11.36,17.36,6.24,2.83,12.94,3.71,19.74,4a61.49,61.49,0,0,0,7.06-.38,74.26,74.26,0,0,0,10-1.07c7.73-1.63,15.46-3.29,23.21-4.82A5.55,5.55,0,0,0,312,73.54,135.49,135.49,0,0,0,320.9,56c3.11-8,5.48-16,4.46-24.79a23.13,23.13,0,0,0-3.93-11C315.55,12,307.77,7.06,296.28,7.17Z"/><path class="cls-1" d="M64.15,119.05A22.08,22.08,0,0,0,52.4,107.3Q44,103.55,29,103.54H0V218.26H29.32q14.86,0,23.15-3.83a22.32,22.32,0,0,0,11.68-12q3.41-8.15,3.4-21V139.8Q67.55,127.05,64.15,119.05ZM41.49,185.4a47.85,47.85,0,0,1-.63,8.5,7.53,7.53,0,0,1-3.19,5.1c-1.7,1.13-4.49,1.7-8.35,1.7h-4V121.25h3.82c3.77,0,6.52.47,8.21,1.41a6.84,6.84,0,0,1,3.34,4.53,35.66,35.66,0,0,1,.77,8.22Z"/><path class="cls-1" d="M144.33,119.26a24.93,24.93,0,0,0-10.84-12.81q-7.58-4.47-20.6-4.46t-20.4,4.46a25,25,0,0,0-10.76,12.81q-3.26,8.35-3.26,20.26v42.62a56.57,56.57,0,0,0,3.26,20.25,25.32,25.32,0,0,0,10.76,13Q100,220,112.89,220t20.6-4.54a25.23,25.23,0,0,0,10.84-13q3.25-8.49,3.25-20.25V139.52Q147.58,127.61,144.33,119.26Zm-22.66,69.26a35.35,35.35,0,0,1-.57,6.37,9.89,9.89,0,0,1-2.41,5.1c-1.22,1.32-3.16,2-5.8,2s-4.56-.66-5.74-2a9.74,9.74,0,0,1-2.26-5.1,40.56,40.56,0,0,1-.49-6.37V133.28a35,35,0,0,1,.56-6.44,9.85,9.85,0,0,1,2.41-5q1.83-2,5.52-2c2.64,0,4.58.66,5.8,2a9.85,9.85,0,0,1,2.41,5,35,35,0,0,1,.57,6.44Z"/><path class="cls-1" d="M201.42,103.54v55.24l-23.51-55.24H160.07V218.26h21.67V158.78l23.51,59.48h17.13V103.54Z"/><path class="cls-1" d="M261.92,201.12V166.85h20V149.29h-20V120.82h2.72c.19-.26.39-.52.61-.78a26.36,26.36,0,0,1,2.91-2.84c.41-.37.81-.72,1.15-1,4.72-4.56,8.72-8.69,12.22-12.61h-45V218.26h37.18c4.87-3.41,9.78-7,14.65-10.81v-6.33Z"/></g></g></svg>