<svg xmlns="http://www.w3.org/2000/svg" viewBox="0 0 181.59 274.32"><defs><style>.cls-1{fill:#b1b1b1;}</style></defs><g id="Capa_2" data-name="Capa 2"><g id="Capa_1-2" data-name="Capa 1"><path class="cls-1" d="M104.17,76.37,96,78.31C90.77,79.55,85.55,80.82,80.31,82a5,5,0,0,0-3.14,2c-8,11.25-17.69,20.87-27.43,30.51a105.46,105.46,0,0,1-8.93,8c-.58.46-1.24.84-1.79.35s-.14-1.36.31-1.89c1.07-1.25,2.4-2.24,3.57-3.38a201.29,201.29,0,0,0,18-19.41c3.4-4.29,7-8.45,10.43-12.68.32-.39.57-.83,1-1.42-3.58.29-6.88,1.14-10.22,1.72C55.36,87,48.71,88.3,41.87,88.59c-8,.33-15.83-.34-23.39-3.12C9.39,82.14,3,76.19.65,66.53A27.25,27.25,0,0,1,1.31,52.4,68.55,68.55,0,0,1,15.18,27.15,81.39,81.39,0,0,1,41.54,6.39a61.61,61.61,0,0,1,19-6C67.12-.48,73.62,0,79.67,3.06,89.23,8,95.83,15.37,98.07,26.14a41.87,41.87,0,0,1-1,19.92,95.13,95.13,0,0,1-10,23c-.59,1-1.16,2-1.88,3.27,1.87-.4,3.51-.73,5.14-1.11,5.82-1.35,11.63-2.83,17.48-4,2.49-.51,3.53-2.22,4.58-4.12,5.5-10,10.73-20.19,15.34-30.66,1.32-3,2.67-6,4-9a11.47,11.47,0,0,1,.93-1.58c.35-.53.6-1.36,1.49-.9s.49,1.25.24,1.89c-.83,2.15-1.74,4.27-2.57,6.42a331.31,331.31,0,0,1-14.32,31.48c-.56,1.09-1,2.23-1.53,3.35-.13.27-.42.58-.22.85s.65.13,1,0c6.28-1.46,12.55-2.93,18.84-4.34,9.83-2.2,19.64-4.49,29.51-6.49,4.49-.91,9-1.85,13.68-1.69,2.34.08,3.15,1.39,2.64,3.68-.63,2.87-2.51,3.86-5.12,4.2-7.32.94-14.46,2.76-21.64,4.36-14.08,3.13-28.11,6.44-42.18,9.59-2,.45-3,1.72-3.9,3.33q-7.8,14-15.64,27.88c-1.2,2.14-2.42,4.26-3.49,6.52,2.63-2.32,5.24-4.66,7.89-6.94,7.76-6.67,16.13-12.33,26.14-15,4.77-1.29,9.68-2,14.5-.2a12.85,12.85,0,0,1,8.56,10.88c1.15,8.12-.77,15.79-3.52,23.3a116.57,116.57,0,0,1-13.41,25.69,200.94,200.94,0,0,1-14.11,18.39A278.89,278.89,0,0,1,96.2,188.61q-7.77,7.32-16.06,14.07c-6.31,5.13-12.86,9.94-19.47,15.12,3.54-1.08,6.84-2.11,10.14-3.11q17.93-5.44,36.22-9.46c8.84-1.93,17.73-3.6,26.65-5.11,3.82-.65,7.68-1.13,11.53-1.63a1.83,1.83,0,0,0,1.78-1.56c4.32-16.65,8.95-33.2,13.66-49.74a86.37,86.37,0,0,1,4.52-11.59c.25-.57.49-1.54,1.26-1.3s.56,1.29.39,1.92q-1,3.79-2.15,7.53c-3.23,10.32-5.38,20.91-7.94,31.4-1.63,6.71-3.21,13.44-4.81,20.16a9.55,9.55,0,0,1-.21,1.21c-.33,1,.21,1.08.93,1,5.28-.58,10.55-1.29,15.84-1.72,1.74-.14,3.53-.72,5.31-.09s2.41,1.62,1.77,3.54c-.25.78-.57,1.53-.89,2.29a2.28,2.28,0,0,1-2,1.44c-4,.33-8,.58-11.93,1-3.4.33-6.79.84-10.19,1.19-1,.11-1,.85-1.11,1.42q-1.92,8-3.78,16c-2.82,12.16-6,24.23-8.46,36.48-.72,3.61-1.34,7.23-2.05,10.85a10.69,10.69,0,0,1-1.26,3.45,1.54,1.54,0,0,1-2.67.38,7.44,7.44,0,0,1-2.38-6.55A137.11,137.11,0,0,1,133,249.39q3.47-12.73,6.9-25.49,2.22-8.15,4.44-16.29a3.78,3.78,0,0,0,.19-1.63c-3.36.47-6.71.86-10,1.42-7.61,1.27-15.22,2.6-22.76,4.21-9.16,2-18.26,4.16-27.27,6.7-8.42,2.38-16.79,4.95-25,7.85C50,229.46,40.62,233,31.46,236.94c-2.35,1-3.4.69-4.63-1.59-.27-.49-.52-1-.75-1.51a2.14,2.14,0,0,1,.9-3.13c5.88-3.55,11.6-7.34,17.26-11.22q11.64-8,22.63-16.9c5.7-4.59,11.32-9.27,17-13.93,1.19-1,2.27-2.08,3.41-3.11a203.72,203.72,0,0,0,14.7-14.69c8.69-9.54,17-19.42,23.93-30.35,5.35-8.44,9.89-17.26,12.23-27a31,31,0,0,0,1-10c-.36-4.18-2.86-5.34-6.66-5.67-4.07-.34-7.79,1.1-11.44,2.59-6.82,2.77-12.59,7.2-18.29,11.74a118.53,118.53,0,0,0-13.57,12.74C84.94,129.4,81.06,134.24,77,139c-.87,1-1.73,2-2.64,3a2,2,0,0,1-3,.26,5.8,5.8,0,0,1-1.71-7.53c3.94-7.3,8.2-14.42,12.52-21.51q8.23-13.51,16.5-27l5.73-9.42ZM65.24,7A30.74,30.74,0,0,0,54.92,8.75,75.43,75.43,0,0,0,22.31,30.18C17.24,35.88,12.77,42,9.74,49A31.2,31.2,0,0,0,6.86,59.77C6.46,68.08,11,73.56,18,76.72c6.09,2.76,12.64,3.62,19.28,3.89a61,61,0,0,0,6.9-.36,72.5,72.5,0,0,0,9.74-1C61.43,77.61,69,76,76.55,74.49a5.38,5.38,0,0,0,4-2.67,131.52,131.52,0,0,0,8.69-17.11c3-7.78,5.36-15.67,4.36-24.21a22.51,22.51,0,0,0-3.83-10.74C84.06,11.73,76.47,6.9,65.24,7Z"/></g></g></svg>